<svg width="663" height="449" viewBox="0 0 663 449" fill="none" xmlns="http://www.w3.org/2000/svg">

<style>
@keyframes bar {
  0% { transform: translateY(65px); }
  10% { transform: translateY(0px); }
  80% { transform: translateY(0px); }
  90%, 100% { transform: translateY(65px); }
}
@keyframes light {
  0%, 10% { opacity: 0; }
  15% { opacity: 1; }
  75% { opacity: 1; }
  80%, 100% { opacity: 0; }
}
@keyframes emblems {
  0%, 15% { opacity: 0; }
  17%, 22%, 27%, 32%, 70% { opacity: 1; }
  20%, 25% { opacity: 0; }
  80%, 100% { opacity: 0; }
}

#shield-bar {
  animation: 10s ease-in-out 0ms infinite forwards bar;
}
#shield-light {
  animation: 10s ease-in-out 0ms infinite forwards light;
}
#shield-emblems {
  animation: 10s ease-in-out 0ms infinite forwards emblems;
  transform-origin: 201px 547px;
}
</style>

<g id="chip">
<rect id="Rectangle 1436" width="377.052" height="377.052" rx="11.6374" transform="matrix(0.866025 0.5 -0.866025 0.5 331.278 71.5649)" fill="black"/>
<g id="Group 1388">
<g id="Group 1382">
<path id="Rectangle 1430" d="M367.985 336.608L390.158 323.807L402.094 331.122C407.966 334.722 412.175 339.116 414.334 343.901L425.52 368.697C427.206 372.434 433.562 374.806 440.155 374.158L454.178 375.482V391.335L432.006 404.136L421.82 397.908C412.093 392.057 405.209 384.829 401.862 376.952L397.629 366.991C392.742 355.49 382.489 344.982 367.985 336.608Z" fill="#55A398" stroke="black" stroke-width="1.16374" stroke-linecap="round" stroke-linejoin="round"/>
<path id="Rectangle 1429" d="M376.536 325.999L398.708 313.198C412.412 321.596 422.235 331.851 427.272 343.017L430.667 350.541C434.859 359.835 442.921 368.397 454.15 375.482L431.966 388.259C421.194 381.779 413.57 373.774 409.863 365.051L406.18 356.382C401.292 344.881 391.04 334.372 376.536 325.999Z" fill="#BDDCD8" stroke="black" stroke-width="1.16374" stroke-linecap="round" stroke-linejoin="round"/>
<path id="Vector 334" d="M431.843 388.259V403.679" stroke="black" stroke-width="1.16374"/>
</g>
<g id="Group 1384">
<path id="Rectangle 1430_2" d="M471.599 276.65L493.771 263.849L505.707 271.164C511.579 274.763 515.789 279.158 517.947 283.943L529.134 308.739C530.819 312.476 537.175 314.847 543.768 314.2L557.791 315.524V331.377L535.619 344.178L525.433 337.95C515.706 332.099 508.822 324.871 505.475 316.994L501.242 307.033C496.355 295.532 486.102 285.024 471.599 276.65Z" fill="#55A398" stroke="black" stroke-width="1.16374" stroke-linecap="round" stroke-linejoin="round"/>
<path id="Rectangle 1429_2" d="M480.149 266.04L502.322 253.239C516.025 261.638 525.848 271.893 530.886 283.059L534.28 290.583C538.473 299.877 546.534 308.438 557.763 315.524L535.58 328.301C524.807 321.821 517.183 313.816 513.477 305.093L509.793 296.424C504.906 284.922 494.653 274.414 480.149 266.04Z" fill="#BDDCD8" stroke="black" stroke-width="1.16374" stroke-linecap="round" stroke-linejoin="round"/>
<path id="Vector 334_2" d="M535.456 328.301V343.72" stroke="black" stroke-width="1.16374"/>
</g>
<g id="Group 1383">
<path id="Rectangle 1430_3" d="M419.793 306.339L441.965 293.538L453.901 300.853C459.774 304.453 463.983 308.847 466.142 313.632L477.328 338.428C479.014 342.165 485.369 344.536 491.962 343.889L505.986 345.213V361.066L483.813 373.867L473.627 367.639C463.9 361.788 457.016 354.56 453.669 346.683L449.436 336.722C444.549 325.221 434.297 314.713 419.793 306.339Z" fill="#55A398" stroke="black" stroke-width="1.16374" stroke-linecap="round" stroke-linejoin="round"/>
<path id="Rectangle 1429_3" d="M428.344 295.73L450.516 282.928C464.22 291.327 474.043 301.582 479.08 312.748L482.474 320.272C486.667 329.566 494.728 338.128 505.958 345.213L483.774 357.99C473.001 351.51 465.378 343.505 461.671 334.782L457.987 326.113C453.1 314.612 442.848 304.103 428.344 295.73Z" fill="#BDDCD8" stroke="black" stroke-width="1.16374" stroke-linecap="round" stroke-linejoin="round"/>
<path id="Vector 334_3" d="M483.65 357.99V373.41" stroke="black" stroke-width="1.16374"/>
</g>
<g id="Group 1385">
<path id="Rectangle 1430_4" d="M523.405 246.382L545.578 233.581L557.513 240.896C563.386 244.495 567.595 248.89 569.754 253.675L580.94 278.471C582.626 282.208 588.982 284.579 595.575 283.932L609.598 285.256V301.109L587.426 313.91L577.24 307.682C567.513 301.831 560.629 294.603 557.281 286.726L553.049 276.765C548.161 265.264 537.909 254.756 523.405 246.382Z" fill="#55A398" stroke="black" stroke-width="1.16374" stroke-linecap="round" stroke-linejoin="round"/>
<path id="Rectangle 1429_4" d="M531.956 235.772L554.128 222.971C567.832 231.37 577.655 241.625 582.692 252.791L586.087 260.315C590.279 269.609 598.341 278.17 609.57 285.255L587.386 298.033C576.614 291.553 568.99 283.548 565.283 274.825L561.6 266.156C556.712 254.654 546.46 244.146 531.956 235.772Z" fill="#BDDCD8" stroke="black" stroke-width="1.16374" stroke-linecap="round" stroke-linejoin="round"/>
<path id="Vector 334_4" d="M587.263 298.033V313.452" stroke="black" stroke-width="1.16374"/>
</g>
<g id="Group 1359">
<path id="Rectangle 1430_5" d="M323.166 356.854L338.2 354.075L350.136 361.39C356.008 364.99 360.218 369.384 362.377 374.169L373.563 398.965C375.248 402.702 381.604 405.074 388.197 404.426L402.22 405.75V421.603L380.048 434.404L369.862 428.176C360.135 422.325 353.251 415.097 349.904 407.22L345.671 397.259C341.629 387.747 333.917 378.914 323.166 371.406V356.854Z" fill="#55A398" stroke="black" stroke-width="1.16374" stroke-linecap="round" stroke-linejoin="round"/>
<path id="Rectangle 1429_5" d="M324.579 356.267L346.751 343.466C360.455 351.865 370.278 362.119 375.315 373.285L378.71 380.809C382.902 390.103 390.964 398.665 402.193 405.75L380.009 418.527C369.237 412.047 361.613 404.042 357.906 395.319L354.223 386.65C349.335 375.149 339.083 364.641 324.579 356.267Z" fill="#BDDCD8" stroke="black" stroke-width="1.16374" stroke-linecap="round" stroke-linejoin="round"/>
<path id="Vector 334_5" d="M379.886 418.527V433.947" stroke="black" stroke-width="1.16374"/>
</g>
<g id="Group 1387">
<path id="Rectangle 1430_6" d="M575.795 216.113L597.967 203.312L609.903 210.627C615.776 214.226 619.985 218.621 622.144 223.406L633.33 248.202C635.016 251.939 641.371 254.31 647.964 253.663L661.988 254.987V270.84L639.815 283.641L629.629 277.413C619.902 271.562 613.018 264.334 609.671 256.457L605.438 246.496C600.551 234.995 590.299 224.487 575.795 216.113Z" fill="#55A398" stroke="black" stroke-width="1.16374" stroke-linecap="round" stroke-linejoin="round"/>
<path id="Rectangle 1429_6" d="M584.346 205.504L606.518 192.702C620.222 201.101 630.045 211.356 635.082 222.522L638.476 230.046C642.669 239.34 650.73 247.902 661.96 254.987L639.776 267.764C629.003 261.284 621.38 253.279 617.673 244.556L613.989 235.887C609.102 224.386 598.85 213.877 584.346 205.504Z" fill="#BDDCD8" stroke="black" stroke-width="1.16374" stroke-linecap="round" stroke-linejoin="round"/>
<path id="Vector 334_6" d="M639.652 267.764V283.183" stroke="black" stroke-width="1.16374"/>
</g>
</g>
<g id="Group 1389">
<g id="Group 1382_2">
<path id="Rectangle 1430_7" d="M294.685 336.608L272.512 323.807L260.576 331.122C254.704 334.722 250.494 339.116 248.336 343.901L237.15 368.697C235.464 372.434 229.108 374.806 222.515 374.158L208.492 375.482V391.335L230.664 404.136L240.85 397.908C250.577 392.057 257.461 384.829 260.808 376.952L265.041 366.991C269.928 355.49 280.181 344.982 294.685 336.608Z" fill="#55A398" stroke="black" stroke-width="1.16374" stroke-linecap="round" stroke-linejoin="round"/>
<path id="Rectangle 1429_7" d="M286.133 325.999L263.961 313.198C250.257 321.596 240.434 331.851 235.397 343.017L232.003 350.541C227.81 359.835 219.749 368.397 208.519 375.482L230.703 388.259C241.476 381.779 249.099 373.774 252.806 365.051L256.49 356.382C261.377 344.881 271.629 334.372 286.133 325.999Z" fill="#BDDCD8" stroke="black" stroke-width="1.16374" stroke-linecap="round" stroke-linejoin="round"/>
<path id="Vector 334_7" d="M230.827 388.259V403.679" stroke="black" stroke-width="1.16374"/>
</g>
<g id="Group 1384_2">
<path id="Rectangle 1430_8" d="M191.07 276.65L168.898 263.849L156.962 271.164C151.09 274.763 146.88 279.158 144.722 283.943L133.535 308.739C131.85 312.476 125.494 314.847 118.901 314.2L104.878 315.524V331.377L127.05 344.178L137.236 337.95C146.963 332.099 153.847 324.871 157.194 316.994L161.427 307.033C166.314 295.532 176.566 285.024 191.07 276.65Z" fill="#55A398" stroke="black" stroke-width="1.16374" stroke-linecap="round" stroke-linejoin="round"/>
<path id="Rectangle 1429_8" d="M182.519 266.04L160.347 253.239C146.643 261.638 136.82 271.893 131.783 283.059L128.389 290.583C124.196 299.877 116.134 308.438 104.905 315.524L127.089 328.301C137.861 321.821 145.485 313.816 149.192 305.093L152.876 296.424C157.763 284.922 168.015 274.414 182.519 266.04Z" fill="#BDDCD8" stroke="black" stroke-width="1.16374" stroke-linecap="round" stroke-linejoin="round"/>
<path id="Vector 334_8" d="M127.213 328.301V343.72" stroke="black" stroke-width="1.16374"/>
</g>
<g id="Group 1383_2">
<path id="Rectangle 1430_9" d="M242.877 306.339L220.705 293.538L208.769 300.853C202.897 304.453 198.687 308.847 196.529 313.632L185.342 338.428C183.657 342.165 177.301 344.536 170.708 343.889L156.685 345.213V361.066L178.857 373.867L189.043 367.639C198.77 361.788 205.654 354.56 209.001 346.683L213.234 336.722C218.121 325.221 228.374 314.713 242.877 306.339Z" fill="#55A398" stroke="black" stroke-width="1.16374" stroke-linecap="round" stroke-linejoin="round"/>
<path id="Rectangle 1429_9" d="M234.326 295.73L212.154 282.928C198.45 291.327 188.627 301.582 183.59 312.748L180.196 320.272C176.003 329.566 167.942 338.128 156.712 345.213L178.896 357.99C189.669 351.51 197.292 343.505 200.999 334.782L204.683 326.113C209.57 314.612 219.822 304.103 234.326 295.73Z" fill="#BDDCD8" stroke="black" stroke-width="1.16374" stroke-linecap="round" stroke-linejoin="round"/>
<path id="Vector 334_9" d="M179.02 357.99V373.41" stroke="black" stroke-width="1.16374"/>
</g>
<g id="Group 1385_2">
<path id="Rectangle 1430_10" d="M139.265 246.382L117.093 233.581L105.157 240.896C99.2845 244.495 95.0751 248.89 92.9164 253.675L81.7301 278.471C80.0445 282.208 73.6889 284.579 67.0956 283.932L53.0725 285.256V301.109L75.2448 313.91L85.4307 307.682C95.1579 301.831 102.042 294.603 105.389 286.726L109.622 276.765C114.509 265.264 124.761 254.756 139.265 246.382Z" fill="#55A398" stroke="black" stroke-width="1.16374" stroke-linecap="round" stroke-linejoin="round"/>
<path id="Rectangle 1429_10" d="M130.714 235.772L108.542 222.971C94.8379 231.37 85.015 241.625 79.9776 252.791L76.5834 260.315C72.3907 269.609 64.3292 278.17 53.0998 285.255L75.2837 298.033C86.0562 291.553 93.68 283.548 97.3867 274.825L101.07 266.156C105.958 254.654 116.21 244.146 130.714 235.772Z" fill="#BDDCD8" stroke="black" stroke-width="1.16374" stroke-linecap="round" stroke-linejoin="round"/>
<path id="Vector 334_10" d="M75.4077 298.033V313.452" stroke="black" stroke-width="1.16374"/>
</g>
<g id="Group 1359_2">
<path id="Rectangle 1430_11" d="M339.505 356.854L324.471 354.075L312.535 361.39C306.662 364.99 302.453 369.384 300.294 374.169L289.108 398.965C287.422 402.702 281.067 405.074 274.474 404.426L260.45 405.75V421.603L282.623 434.404L292.809 428.176C302.536 422.325 309.42 415.097 312.767 407.22L317 397.259C321.042 387.747 328.754 378.914 339.505 371.406V356.854Z" fill="#55A398" stroke="black" stroke-width="1.16374" stroke-linecap="round" stroke-linejoin="round"/>
<path id="Rectangle 1429_11" d="M338.092 356.267L315.92 343.466C302.216 351.865 292.393 362.119 287.356 373.285L283.961 380.809C279.769 390.103 271.707 398.665 260.478 405.75L282.662 418.527C293.434 412.047 301.058 404.042 304.765 395.319L308.448 386.65C313.336 375.149 323.588 364.641 338.092 356.267Z" fill="#BDDCD8" stroke="black" stroke-width="1.16374" stroke-linecap="round" stroke-linejoin="round"/>
<path id="Vector 334_11" d="M282.785 418.527V433.947" stroke="black" stroke-width="1.16374"/>
</g>
<g id="Group 1387_2">
<path id="Rectangle 1430_12" d="M86.877 216.113L64.7047 203.312L52.7688 210.627C46.8963 214.226 42.6869 218.621 40.5282 223.406L29.3419 248.202C27.6563 251.939 21.3007 254.31 14.7075 253.663L0.684334 254.987V270.84L22.8566 283.641L33.0425 277.413C42.7697 271.562 49.6537 264.334 53.0007 256.457L57.2335 246.496C62.1208 234.995 72.3731 224.487 86.877 216.113Z" fill="#55A398" stroke="black" stroke-width="1.16374" stroke-linecap="round" stroke-linejoin="round"/>
<path id="Rectangle 1429_12" d="M78.3257 205.504L56.1534 192.702C42.4497 201.101 32.6268 211.356 27.5895 222.522L24.1952 230.046C20.0025 239.34 11.941 247.902 0.711647 254.987L22.8955 267.764C33.6681 261.284 41.2918 253.279 44.9985 244.556L48.6822 235.887C53.5695 224.386 63.8218 213.877 78.3257 205.504Z" fill="#BDDCD8" stroke="black" stroke-width="1.16374" stroke-linecap="round" stroke-linejoin="round"/>
<path id="Vector 334_12" d="M23.0195 267.764V283.183" stroke="black" stroke-width="1.16374"/>
</g>
</g>
<rect id="Rectangle 1421" width="377.052" height="377.052" rx="11.6374" transform="matrix(0.866025 0.5 -0.866025 0.5 331.313 5.84741)" fill="#BDDCD8" stroke="black" stroke-width="1.16374" stroke-linecap="round" stroke-linejoin="round"/>
<rect id="Rectangle 1406" width="39.4523" height="95.9222" transform="matrix(0.866025 -0.5 0.866025 0.5 30.3687 188.569)" stroke="black" stroke-width="1.16374" stroke-linecap="round" stroke-linejoin="round"/>
<rect id="Rectangle 1444" width="9.1629" height="95.9222" transform="matrix(0.866025 -0.5 0.866025 0.5 56.5625 173.419)" stroke="black" stroke-width="1.16374" stroke-linecap="round" stroke-linejoin="round"/>
<rect id="Rectangle 1443" width="39.4523" height="22.3315" transform="matrix(0.866025 -0.5 0.866025 0.5 94.0996 225.362)" fill="#FFE598" stroke="black" stroke-width="1.16374" stroke-linecap="round" stroke-linejoin="round"/>
<rect id="Rectangle 1442" width="6.16203" height="95.9742" transform="matrix(0.866025 -0.5 0.866025 0.5 137.502 126.246)" fill="#FFE598" stroke="black" stroke-width="1.16374" stroke-linecap="round" stroke-linejoin="round"/>
<rect id="Rectangle 1438" width="343.146" height="86.6129" transform="matrix(0.866025 0.5 -0.866025 0.5 322.5 22.9468)" stroke="black" stroke-width="1.16374" stroke-linecap="round" stroke-linejoin="round"/>
<rect id="Rectangle 1440" width="223.191" height="86.6129" transform="matrix(0.866025 0.5 -0.866025 0.5 426.385 82.9221)" stroke="black" stroke-width="1.16374" stroke-linecap="round" stroke-linejoin="round"/>
<rect id="Rectangle 1441" width="103.56" height="86.6129" transform="matrix(0.866025 0.5 -0.866025 0.5 529.989 142.74)" stroke="black" stroke-width="1.16374" stroke-linecap="round" stroke-linejoin="round"/>
<rect id="Rectangle 1439" width="343.146" height="95.8261" transform="matrix(0.866025 0.5 -0.866025 0.5 330.478 18.3389)" stroke="black" stroke-width="1.16374" stroke-linecap="round" stroke-linejoin="round"/>
<g id="Group 1375">
<circle id="Ellipse 142" r="17.3255" transform="matrix(0.866025 -0.5 0.866025 0.5 496.949 250.092)" fill="#FFE598" stroke="black" stroke-width="1.16374" stroke-linecap="round" stroke-linejoin="round"/>
<circle id="Ellipse 143" r="7.07165" transform="matrix(0.866025 -0.5 0.866025 0.5 496.949 250.093)" fill="#FAC864" stroke="black" stroke-width="1.16374" stroke-linecap="round" stroke-linejoin="round"/>
</g>
<rect id="Rectangle 1432" width="377.052" height="377.052" rx="11.6374" transform="matrix(0.866025 0.5 -0.866025 0.5 331.278 0.0292969)" stroke="black" stroke-width="1.16374" stroke-linecap="round" stroke-linejoin="round"/>
<path id="Rectangle 1430_13" d="M473.255 273.608L468.512 276.346L189.295 115.141" stroke="black" stroke-width="1.16374" stroke-linecap="round" stroke-linejoin="round"/>
<path id="Rectangle 1435" d="M473.255 273.608L194.039 112.402L189.295 115.141" stroke="black" stroke-width="1.16374" stroke-linecap="round" stroke-linejoin="round" stroke-dasharray="5.82 5.82"/>
<path id="shield-light" d="M468.512 212.162L473.255 209.423L473.255 273.508L468.489 276.417L189.295 115.239L189.295 50.956L468.512 212.162Z" fill="#FFE598" fill-opacity="0.3"/>
<path id="shield-bar" d="M194.039 47.7202L473.255 208.926L468.512 211.664L189.295 50.4587L194.039 47.7202Z" fill="#55A398" stroke="black" stroke-width="1.16374" stroke-linecap="round" stroke-linejoin="round"/>
<g id="Group 1357">
<rect id="Rectangle 1426" width="223.868" height="136.776" transform="matrix(0.866025 0.5 -0.866025 0.5 255.052 180.54)" stroke="black" stroke-width="1.16374" stroke-linecap="round" stroke-linejoin="round"/>
<g id="Group 1355">
<g id="Group 1354">
<path id="Rectangle 1422" d="M437.92 263.034L437.923 292.358L331.176 353.988L148.175 248.426L148.173 219.103L437.92 263.034Z" fill="#FAC864" stroke="black" stroke-width="1.16374" stroke-linecap="round" stroke-linejoin="round"/>
<path id="Vector 333" d="M331.174 324.711L331.174 353.805" stroke="black" stroke-width="1.16374"/>
</g>
</g>
<rect id="Rectangle 1424" width="211.189" height="123.26" transform="matrix(0.866025 0.5 -0.866025 0.5 255.03 157.39)" fill="#FFE598" stroke="black" stroke-width="1.16374" stroke-linecap="round" stroke-linejoin="round"/>
<rect id="Rectangle 1425" width="187.65" height="100.455" transform="matrix(0.866025 0.5 -0.866025 0.5 255.663 169.16)" stroke="black" stroke-width="1.16374" stroke-linecap="round" stroke-linejoin="round"/>
</g>
<g id="shield-emblems">
<path id="Vector" d="M422.318 199.145L435.782 201.548L449.489 214.832L449.489 229.249C449.571 232.593 446.749 239.256 435.782 239.708C424.815 226.592 422.237 216.812 422.318 213.561L422.318 199.145Z" fill="#FFE598" fill-opacity="0.4" stroke="black" stroke-width="1.04325" stroke-linecap="round" stroke-linejoin="round"/>
<path id="Vector_2" d="M207.706 76.9368L221.17 79.3395L234.878 92.624L234.878 107.04C234.959 110.385 232.138 117.048 221.17 117.5C210.203 104.384 207.625 94.6037 207.706 91.353L207.706 76.9368Z" fill="#FFE598" fill-opacity="0.4" stroke="black" stroke-width="1.04325" stroke-linecap="round" stroke-linejoin="round"/>
<path id="Vector_3" d="M313.522 136.552L326.986 138.954L340.693 152.239L340.693 166.655C340.775 170 337.953 176.663 326.986 177.115C316.019 163.999 313.44 154.218 313.522 150.968L313.522 136.552Z" fill="#FFE598" fill-opacity="0.4" stroke="black" stroke-width="1.04325" stroke-linecap="round" stroke-linejoin="round"/>
</g>
<path id="TOITVM" d="M259.7 211.568L252.966 207.68L234.652 218.253L230.123 215.638L248.437 205.065L241.794 201.23L245.462 199.111L263.369 209.449L259.7 211.568ZM272.11 227.764C269.946 229.013 267.666 229.888 265.271 230.387C262.875 230.887 260.52 230.98 258.205 230.666C255.9 230.358 253.827 229.672 251.985 228.609C250.163 227.557 248.975 226.366 248.422 225.035C247.868 223.704 248.009 222.345 248.844 220.956C249.69 219.561 251.164 218.251 253.268 217.024L254.355 216.397C256.519 215.147 258.809 214.273 261.225 213.773C263.66 213.273 266.026 213.18 268.321 213.494C270.636 213.808 272.709 214.494 274.541 215.551C276.373 216.609 277.556 217.803 278.089 219.134C278.643 220.465 278.482 221.83 277.606 223.231C276.75 224.631 275.246 225.953 273.092 227.197L272.11 227.764ZM268.517 224.538C270.822 223.208 272.161 221.958 272.533 220.79C272.905 219.622 272.327 218.596 270.797 217.713C269.277 216.836 267.51 216.501 265.497 216.711C263.494 216.914 261.345 217.672 259.05 218.986L257.979 219.605C255.734 220.9 254.405 222.144 253.993 223.335C253.58 224.527 254.149 225.57 255.699 226.465C257.219 227.342 258.98 227.673 260.983 227.458C262.996 227.238 265.15 226.471 267.445 225.157L268.517 224.538ZM269.725 238.503L265.195 235.888L287.178 223.196L291.707 225.811L269.725 238.503ZM308.345 239.653L301.612 235.766L283.298 246.339L278.768 243.724L297.082 233.151L290.439 229.315L294.108 227.197L312.014 237.535L308.345 239.653ZM306.443 253.408L327.958 246.74L333 249.651L303.363 257.924L298.637 255.195L312.996 238.102L318.023 241.004L306.443 253.408ZM341.002 254.271L330.705 266.736L352.265 260.774L358.214 264.209L336.231 276.9L331.687 274.276L337.696 270.807L348.521 265.08L326.206 271.112L323.096 269.317L333.544 256.451L323.64 262.692L317.631 266.161L313.101 263.546L335.084 250.854L341.002 254.271Z" fill="black"/>
<g id="Group 1369">
<path id="Rectangle 1402" d="M477.589 191.57L477.589 169.747L606.663 173.461L606.663 194.882L544.994 230.486L477.589 191.57Z" fill="#FAC864" stroke="black" stroke-width="1.16374" stroke-linecap="round" stroke-linejoin="round"/>
<path id="Rectangle 1408" d="M477.592 181.741L544.997 220.657L606.666 185.053" stroke="black" stroke-width="1.16374" stroke-linecap="round" stroke-linejoin="round"/>
<rect id="Rectangle 1406_2" width="71.2088" height="77.8327" transform="matrix(0.866025 -0.5 0.866025 0.5 477.592 169.413)" fill="#FFE598" stroke="black" stroke-width="1.16374" stroke-linecap="round" stroke-linejoin="round"/>
<rect id="Rectangle 1407" width="57.5008" height="62.8495" transform="matrix(0.866025 -0.5 0.866025 0.5 490.015 169.732)" fill="#FFE598" stroke="black" stroke-width="1.16374" stroke-linecap="round" stroke-linejoin="round"/>
<path id="CO- sensing" d="M534.878 169.361C535.57 169.844 535.885 170.352 535.823 170.885C535.757 171.415 535.316 171.916 534.498 172.388C533.927 172.718 533.289 172.931 532.583 173.028C531.878 173.121 531.157 173.091 530.422 172.94C529.687 172.788 528.985 172.525 528.315 172.149L527.646 171.763C526.97 171.373 526.494 170.959 526.218 170.524C525.942 170.088 525.888 169.661 526.056 169.242C526.226 168.821 526.605 168.441 527.193 168.102C527.984 167.645 528.835 167.402 529.748 167.372C530.66 167.341 531.548 167.53 532.411 167.937L531.171 168.653C530.596 168.39 530.074 168.263 529.605 168.273C529.136 168.278 528.668 168.416 528.202 168.685C527.66 168.997 527.442 169.353 527.547 169.751C527.652 170.145 528.084 170.564 528.842 171.01L529.477 171.376C530.252 171.824 530.98 172.085 531.663 172.161C532.349 172.235 532.959 172.117 533.494 171.808C533.983 171.526 534.241 171.25 534.267 170.981C534.293 170.712 534.083 170.411 533.637 170.077L534.878 169.361ZM540.652 164.799C541.355 165.205 541.85 165.631 542.139 166.078C542.424 166.524 542.484 166.959 542.316 167.386C542.149 167.808 541.771 168.189 541.184 168.528C540.603 168.864 539.943 169.082 539.205 169.182C538.466 169.279 537.71 169.247 536.935 169.088C536.164 168.927 535.434 168.65 534.745 168.256L534.341 168.022C533.642 167.619 533.148 167.192 532.859 166.741C532.574 166.288 532.515 165.85 532.682 165.427C532.849 165.001 533.225 164.619 533.809 164.282C534.393 163.945 535.051 163.728 535.783 163.631C536.515 163.531 537.268 163.562 538.043 163.725C538.814 163.886 539.551 164.167 540.253 164.569L540.652 164.799ZM539.033 165.302C538.238 164.844 537.479 164.58 536.753 164.509C536.031 164.437 535.394 164.561 534.843 164.879C534.305 165.19 534.095 165.555 534.213 165.976C534.331 166.393 534.773 166.826 535.537 167.275L535.951 167.514C536.738 167.968 537.5 168.232 538.235 168.304C538.973 168.374 539.615 168.252 540.16 167.937C540.711 167.619 540.925 167.253 540.8 166.84C540.678 166.425 540.214 165.985 539.407 165.518L539.033 165.302ZM544.93 163.29L542.346 164.782L541.381 164.225L543.965 162.733L544.93 163.29ZM536.038 183.714C535.825 183.591 535.574 183.548 535.285 183.586C535 183.622 534.611 183.733 534.119 183.919C533.626 184.104 533.178 184.238 532.775 184.32C531.888 184.498 531.171 184.428 530.623 184.112C530.164 183.847 529.973 183.513 530.052 183.112C530.131 182.71 530.469 182.337 531.066 181.992C531.703 181.624 532.374 181.418 533.08 181.375C533.789 181.329 534.394 181.452 534.896 181.742L533.7 182.432C533.47 182.3 533.195 182.239 532.873 182.25C532.548 182.26 532.245 182.346 531.962 182.509C531.7 182.661 531.545 182.82 531.5 182.986C531.457 183.151 531.537 183.292 531.741 183.41C531.925 183.516 532.144 183.554 532.4 183.524C532.656 183.493 533.072 183.373 533.646 183.163C534.217 182.95 534.708 182.809 535.118 182.739C535.528 182.665 535.897 182.649 536.226 182.691C536.557 182.731 536.866 182.833 537.151 182.998C537.63 183.274 537.821 183.614 537.722 184.015C537.62 184.415 537.248 184.801 536.605 185.172C536.168 185.424 535.7 185.603 535.202 185.709C534.703 185.815 534.22 185.844 533.754 185.795C533.288 185.745 532.896 185.629 532.578 185.445L533.739 184.774C534.038 184.928 534.363 184.992 534.714 184.968C535.062 184.941 535.398 184.834 535.723 184.646C536.038 184.464 536.219 184.292 536.265 184.129C536.308 183.964 536.232 183.826 536.038 183.714ZM542.153 181.969C541.395 182.407 540.541 182.625 539.593 182.623C538.644 182.617 537.773 182.385 536.979 181.926L536.831 181.841C536.299 181.534 535.927 181.202 535.714 180.843C535.5 180.481 535.462 180.126 535.6 179.778C535.738 179.429 536.035 179.123 536.491 178.86C537.217 178.441 538.008 178.251 538.864 178.291C539.724 178.329 540.577 178.592 541.424 179.081L541.907 179.36L538.426 181.369C538.902 181.602 539.396 181.719 539.908 181.719C540.423 181.717 540.876 181.603 541.267 181.378C541.815 181.061 542.04 180.676 541.941 180.221L543.201 180.204C543.306 180.511 543.269 180.819 543.088 181.128C542.908 181.433 542.596 181.713 542.153 181.969ZM537.446 179.417C537.118 179.606 536.967 179.826 536.994 180.076C537.023 180.324 537.215 180.583 537.57 180.852L539.849 179.536L539.76 179.485C539.334 179.269 538.925 179.156 538.534 179.147C538.141 179.135 537.778 179.225 537.446 179.417ZM540.907 176.424L541.557 176.759C541.475 176.257 541.754 175.821 542.394 175.452C543.503 174.811 544.703 174.852 545.993 175.574L549.513 177.606L548.316 178.297L544.865 176.304C544.527 176.109 544.204 176.008 543.896 176C543.587 175.989 543.267 176.079 542.936 176.27C542.453 176.549 542.312 176.882 542.512 177.271L546.303 179.459L545.107 180.15L539.78 177.075L540.907 176.424ZM552.274 174.34C552.061 174.217 551.81 174.174 551.521 174.212C551.236 174.248 550.847 174.359 550.354 174.545C549.862 174.731 549.414 174.864 549.01 174.946C548.124 175.124 547.407 175.055 546.859 174.738C546.4 174.473 546.209 174.139 546.288 173.738C546.367 173.336 546.705 172.963 547.302 172.618C547.939 172.25 548.61 172.045 549.316 172.001C550.025 171.956 550.63 172.078 551.132 172.368L549.936 173.058C549.706 172.926 549.431 172.865 549.109 172.877C548.784 172.886 548.48 172.972 548.198 173.135C547.936 173.287 547.781 173.446 547.735 173.613C547.693 173.778 547.773 173.919 547.977 174.036C548.16 174.142 548.38 174.18 548.636 174.15C548.892 174.12 549.307 173.999 549.882 173.789C550.453 173.577 550.944 173.436 551.354 173.365C551.764 173.292 552.133 173.275 552.461 173.317C552.793 173.357 553.101 173.459 553.387 173.624C553.866 173.901 554.056 174.24 553.958 174.642C553.856 175.041 553.484 175.427 552.841 175.798C552.404 176.05 551.936 176.229 551.437 176.336C550.939 176.442 550.456 176.47 549.99 176.421C549.524 176.372 549.132 176.255 548.814 176.071L549.975 175.4C550.274 175.554 550.599 175.618 550.95 175.594C551.298 175.567 551.634 175.46 551.959 175.273C552.274 175.091 552.455 174.918 552.501 174.755C552.544 174.59 552.468 174.452 552.274 174.34ZM557.217 173.158L556.021 173.849L550.694 170.773L551.89 170.083L557.217 173.158ZM549.237 170.017C549.053 169.911 548.958 169.79 548.951 169.653C548.948 169.515 549.055 169.383 549.271 169.258C549.488 169.133 549.716 169.072 549.956 169.074C550.195 169.075 550.407 169.129 550.591 169.236C550.771 169.34 550.863 169.461 550.866 169.599C550.866 169.736 550.758 169.867 550.542 169.992C550.325 170.117 550.098 170.179 549.862 170.179C549.626 170.175 549.417 170.121 549.237 170.017ZM554.308 168.687L554.957 169.022C554.875 168.52 555.154 168.084 555.794 167.715C556.904 167.075 558.103 167.115 559.393 167.837L562.913 169.869L561.717 170.56L558.266 168.568C557.928 168.372 557.604 168.271 557.296 168.264C556.987 168.252 556.667 168.342 556.336 168.534C555.853 168.812 555.712 169.146 555.912 169.534L559.703 171.723L558.507 172.413L553.18 169.338L554.308 168.687ZM561.224 167.723C560.397 167.246 559.931 166.753 559.826 166.246C559.721 165.734 559.99 165.292 560.634 164.921C561.241 164.57 561.93 164.417 562.701 164.461L562.219 164.119L563.297 163.497L568.461 166.479C569.16 166.882 569.493 167.327 569.46 167.812C569.431 168.295 569.047 168.75 568.308 169.176C567.918 169.401 567.453 169.575 566.915 169.696C566.384 169.817 565.89 169.858 565.433 169.818L565.281 169.076C566.085 169.116 566.756 168.981 567.294 168.67C567.691 168.441 567.897 168.197 567.91 167.94C567.926 167.684 567.726 167.435 567.309 167.195L566.95 166.987C566.989 167.408 566.722 167.784 566.147 168.116C565.524 168.476 564.766 168.627 563.873 168.57C562.983 168.512 562.101 168.229 561.224 167.723ZM562.519 167.095C563.054 167.404 563.584 167.585 564.109 167.638C564.634 167.687 565.09 167.6 565.478 167.377C565.96 167.098 566.111 166.772 565.931 166.399L563.587 165.046C562.957 164.944 562.401 165.032 561.918 165.31C561.525 165.538 561.374 165.805 561.466 166.112C561.561 166.417 561.912 166.745 562.519 167.095Z" fill="black"/>
</g>
<g id="Group 1371">
<path id="Rectangle 1402_2" d="M373.392 131.615L373.392 109.793L502.465 113.506L502.465 134.927L440.797 170.531L373.392 131.615Z" fill="#FAC864" stroke="black" stroke-width="1.16374" stroke-linecap="round" stroke-linejoin="round"/>
<rect id="Rectangle 1406_3" width="71.2088" height="77.8327" transform="matrix(0.866025 -0.5 0.866025 0.5 373.395 109.458)" fill="#FFE598" stroke="black" stroke-width="1.16374" stroke-linecap="round" stroke-linejoin="round"/>
<rect id="Rectangle 1407_2" width="57.5008" height="62.8495" transform="matrix(0.866025 -0.5 0.866025 0.5 386.027 109.112)" fill="#FFE598" stroke="black" stroke-width="1.16374" stroke-linecap="round" stroke-linejoin="round"/>
<path id="NOx- sensing" d="M430.706 112.301L429.461 113.02L421.18 111.928L426.266 114.865L425.02 115.584L417.853 111.445L419.098 110.726L427.408 111.823L422.303 108.876L423.539 108.162L430.706 112.301ZM434.502 106.187C435.204 106.593 435.7 107.019 435.989 107.466C436.274 107.911 436.333 108.347 436.166 108.774C435.999 109.196 435.621 109.577 435.034 109.916C434.453 110.252 433.793 110.469 433.055 110.57C432.316 110.667 431.56 110.635 430.785 110.476C430.014 110.315 429.284 110.037 428.594 109.643L428.191 109.41C427.492 109.007 426.998 108.579 426.709 108.128C426.423 107.675 426.364 107.238 426.532 106.815C426.699 106.389 427.075 106.007 427.659 105.67C428.243 105.333 428.901 105.116 429.633 105.019C430.365 104.918 431.118 104.95 431.893 105.113C432.664 105.274 433.401 105.555 434.103 105.957L434.502 106.187ZM432.882 106.69C432.088 106.232 431.328 105.967 430.603 105.897C429.881 105.825 429.244 105.948 428.693 106.267C428.155 106.577 427.945 106.943 428.063 107.364C428.181 107.781 428.622 108.214 429.387 108.663L429.801 108.901C430.588 109.356 431.35 109.62 432.085 109.692C432.823 109.762 433.465 109.64 434.01 109.325C434.561 109.007 434.774 108.641 434.65 108.228C434.528 107.813 434.064 107.372 433.256 106.906L432.882 106.69ZM437.362 104.331L436.624 102.734L437.953 101.966L438.947 104.422L443.334 105.01L442.014 105.772L439.13 105.334L439.893 106.997L438.563 107.765L437.544 105.232L433.296 104.655L434.615 103.893L437.362 104.331ZM443.851 101.75L441.266 103.243L440.301 102.685L442.886 101.193L443.851 101.75ZM432.138 123.803C431.925 123.68 431.674 123.637 431.385 123.675C431.099 123.711 430.71 123.822 430.218 124.008C429.726 124.193 429.278 124.327 428.874 124.408C427.988 124.586 427.271 124.517 426.723 124.201C426.263 123.936 426.073 123.602 426.152 123.2C426.231 122.799 426.569 122.425 427.166 122.081C427.803 121.713 428.474 121.507 429.179 121.464C429.888 121.418 430.494 121.541 430.996 121.83L429.8 122.521C429.57 122.388 429.294 122.328 428.973 122.339C428.648 122.349 428.344 122.435 428.062 122.598C427.799 122.749 427.645 122.909 427.599 123.075C427.556 123.24 427.637 123.381 427.84 123.499C428.024 123.605 428.244 123.643 428.5 123.613C428.756 123.582 429.171 123.462 429.746 123.252C430.317 123.039 430.807 122.898 431.217 122.828C431.628 122.754 431.997 122.738 432.325 122.78C432.657 122.82 432.965 122.922 433.251 123.087C433.73 123.363 433.92 123.703 433.822 124.104C433.72 124.504 433.347 124.89 432.704 125.261C432.268 125.513 431.8 125.692 431.301 125.798C430.802 125.904 430.32 125.933 429.854 125.884C429.388 125.834 428.996 125.718 428.677 125.534L429.839 124.863C430.138 125.017 430.463 125.081 430.814 125.056C431.162 125.03 431.498 124.923 431.823 124.735C432.138 124.553 432.319 124.381 432.365 124.218C432.407 124.053 432.332 123.915 432.138 123.803ZM438.252 122.058C437.494 122.496 436.641 122.713 435.692 122.712C434.744 122.706 433.873 122.474 433.078 122.015L432.931 121.93C432.399 121.623 432.027 121.29 431.813 120.932C431.6 120.57 431.562 120.215 431.7 119.866C431.838 119.518 432.135 119.212 432.591 118.948C433.316 118.53 434.107 118.34 434.964 118.38C435.824 118.418 436.677 118.681 437.524 119.17L438.006 119.449L434.526 121.458C435.002 121.691 435.496 121.808 436.008 121.808C436.523 121.806 436.976 121.692 437.366 121.467C437.914 121.15 438.139 120.765 438.041 120.31L439.301 120.293C439.406 120.6 439.368 120.908 439.188 121.217C439.007 121.522 438.695 121.802 438.252 122.058ZM433.546 119.505C433.218 119.695 433.067 119.915 433.093 120.165C433.123 120.413 433.315 120.672 433.669 120.941L435.948 119.625L435.86 119.574C435.433 119.358 435.025 119.245 434.634 119.235C434.24 119.224 433.878 119.314 433.546 119.505ZM437.007 116.513L437.657 116.848C437.575 116.346 437.854 115.91 438.494 115.54C439.603 114.9 440.802 114.941 442.092 115.663L445.612 117.695L444.416 118.386L440.965 116.393C440.627 116.198 440.304 116.097 439.995 116.089C439.687 116.078 439.367 116.168 439.035 116.359C438.553 116.638 438.412 116.971 438.612 117.36L442.402 119.548L441.206 120.239L435.88 117.163L437.007 116.513ZM448.374 114.429C448.161 114.306 447.91 114.263 447.621 114.301C447.335 114.337 446.946 114.448 446.454 114.634C445.962 114.82 445.514 114.953 445.11 115.035C444.224 115.213 443.507 115.144 442.959 114.827C442.499 114.562 442.309 114.228 442.388 113.827C442.466 113.425 442.804 113.052 443.402 112.707C444.039 112.339 444.71 112.134 445.415 112.09C446.124 112.045 446.73 112.167 447.232 112.457L446.036 113.147C445.806 113.015 445.53 112.954 445.209 112.965C444.884 112.975 444.58 113.061 444.298 113.224C444.035 113.376 443.881 113.535 443.835 113.702C443.792 113.866 443.873 114.008 444.076 114.125C444.26 114.231 444.48 114.269 444.736 114.239C444.992 114.208 445.407 114.088 445.981 113.878C446.553 113.666 447.043 113.524 447.453 113.454C447.864 113.38 448.233 113.364 448.561 113.406C448.893 113.446 449.201 113.548 449.487 113.713C449.966 113.99 450.156 114.329 450.058 114.73C449.956 115.13 449.583 115.516 448.94 115.887C448.504 116.139 448.036 116.318 447.537 116.424C447.038 116.531 446.556 116.559 446.09 116.51C445.624 116.46 445.232 116.344 444.913 116.16L446.075 115.489C446.374 115.643 446.699 115.707 447.05 115.683C447.398 115.656 447.734 115.549 448.059 115.361C448.374 115.18 448.555 115.007 448.6 114.844C448.643 114.679 448.568 114.541 448.374 114.429ZM453.317 113.247L452.12 113.937L446.794 110.862L447.99 110.171L453.317 113.247ZM445.337 110.106C445.153 110 445.058 109.879 445.051 109.742C445.048 109.604 445.154 109.472 445.371 109.347C445.588 109.222 445.816 109.161 446.055 109.162C446.295 109.164 446.507 109.218 446.69 109.324C446.871 109.429 446.963 109.55 446.966 109.688C446.966 109.825 446.858 109.955 446.641 110.08C446.425 110.206 446.198 110.268 445.962 110.268C445.725 110.264 445.517 110.21 445.337 110.106ZM450.407 108.776L451.057 109.111C450.975 108.609 451.254 108.173 451.894 107.804C453.003 107.163 454.203 107.204 455.493 107.926L459.012 109.958L457.816 110.649L454.365 108.657C454.027 108.461 453.704 108.36 453.395 108.352C453.087 108.341 452.767 108.431 452.435 108.622C451.953 108.901 451.812 109.234 452.012 109.623L455.803 111.811L454.606 112.502L449.28 109.427L450.407 108.776ZM457.324 107.812C456.497 107.335 456.031 106.842 455.926 106.334C455.821 105.823 456.09 105.381 456.733 105.01C457.34 104.659 458.03 104.506 458.801 104.549L458.318 104.208L459.396 103.586L464.561 106.567C465.26 106.971 465.593 107.415 465.56 107.9C465.53 108.384 465.147 108.838 464.408 109.265C464.018 109.49 463.553 109.664 463.015 109.785C462.483 109.906 461.989 109.947 461.533 109.907L461.38 109.165C462.185 109.205 462.856 109.07 463.394 108.759C463.791 108.53 463.996 108.286 464.009 108.028C464.026 107.773 463.826 107.524 463.409 107.284L463.049 107.076C463.089 107.497 462.821 107.873 462.247 108.205C461.623 108.565 460.865 108.716 459.972 108.659C459.083 108.601 458.2 108.318 457.324 107.812ZM458.619 107.184C459.154 107.493 459.684 107.674 460.209 107.727C460.734 107.776 461.19 107.689 461.577 107.466C462.06 107.187 462.211 106.861 462.03 106.488L459.687 105.135C459.057 105.033 458.501 105.121 458.018 105.399C457.624 105.627 457.473 105.894 457.565 106.201C457.66 106.506 458.011 106.834 458.619 107.184Z" fill="black"/>
</g>
<path id="Rectangle 1402_3" d="M269.881 71.7594L269.882 49.937L398.955 53.6506L398.955 75.0714L337.286 110.676L269.881 71.7594Z" fill="#FAC864" stroke="black" stroke-width="1.16374" stroke-linecap="round" stroke-linejoin="round"/>
<path id="Rectangle 1408_2" d="M269.883 61.9304L337.288 100.847L398.957 65.2424" stroke="black" stroke-width="1.16374" stroke-linecap="round" stroke-linejoin="round"/>
<rect id="Rectangle 1406_4" width="71.2088" height="77.8327" transform="matrix(0.866025 -0.5 0.866025 0.5 269.883 49.6052)" fill="#FFE598" stroke="black" stroke-width="1.16374" stroke-linecap="round" stroke-linejoin="round"/>
<path id="Air-plastic- sensing" d="M310.007 60.2264L307.231 61.8294L308.319 63.1284L307.024 63.8759L302.564 58.1743L303.681 57.5291L313.562 60.1014L312.262 60.8517L310.007 60.2264ZM306.576 61.0478L308.653 59.8484L304.641 58.7314L306.576 61.0478ZM315.536 58.9616L314.339 59.6523L309.013 56.5769L310.209 55.8863L315.536 58.9616ZM307.556 55.8209C307.372 55.7148 307.277 55.5935 307.27 55.4571C307.267 55.3188 307.373 55.1871 307.59 55.062C307.807 54.9369 308.035 54.8754 308.274 54.8773C308.514 54.8792 308.726 54.9332 308.909 55.0393C309.09 55.1435 309.182 55.2648 309.185 55.4031C309.185 55.5395 309.077 55.6703 308.86 55.7953C308.643 55.9204 308.417 55.9829 308.181 55.9829C307.944 55.9791 307.736 55.9251 307.556 55.8209ZM315.398 54.1525C315.214 54.2283 315.038 54.3145 314.871 54.4111C314.323 54.7276 314.164 55.062 314.393 55.4144L318.036 57.5177L316.84 58.2084L311.514 55.1331L312.656 54.4737L313.281 54.8005C313.107 54.3666 313.276 54.0018 313.788 53.7062C313.959 53.6077 314.123 53.5395 314.28 53.5016L315.398 54.1525ZM320.144 53.3396L317.559 54.8318L316.594 54.2747L319.179 52.7825L320.144 53.3396ZM325.751 50.0511C326.575 50.5267 327.045 51.0146 327.164 51.5149C327.279 52.0132 327.021 52.4443 326.391 52.8081C325.807 53.1454 325.147 53.3045 324.412 53.2856L326.937 54.7437L325.741 55.4343L318.366 51.1766L319.469 50.54L320.06 50.8242C319.984 50.3751 320.249 49.9762 320.852 49.6276C321.502 49.2524 322.254 49.0989 323.107 49.1671C323.96 49.2316 324.817 49.512 325.677 50.0085L325.751 50.0511ZM324.456 50.6792C323.924 50.3723 323.396 50.1904 322.871 50.1335C322.349 50.0748 321.891 50.1591 321.497 50.3865C321.008 50.6688 320.859 50.9881 321.049 51.3443L323.412 52.7086C324.042 52.8223 324.604 52.737 325.096 52.4528C325.477 52.233 325.621 51.9734 325.529 51.674C325.437 51.3708 325.08 51.0393 324.456 50.6792ZM330.649 50.2358L329.453 50.9265L321.891 46.5608L323.087 45.8701L330.649 50.2358ZM335.139 47.6437C334.985 47.6153 334.773 47.5461 334.504 47.4362C334.52 47.8853 334.253 48.269 333.701 48.5873C333.166 48.8962 332.577 49.0601 331.934 49.079C331.291 49.098 330.744 48.9777 330.295 48.7181C329.727 48.3903 329.502 48.0179 329.62 47.6011C329.738 47.1804 330.19 46.7436 330.974 46.2908L331.708 45.8673L331.358 45.6655C331.082 45.5063 330.785 45.4239 330.467 45.4182C330.145 45.4106 329.827 45.4978 329.512 45.6797C329.239 45.837 329.085 46.0056 329.049 46.1856C329.01 46.3637 329.095 46.5134 329.305 46.6347L328.109 47.3254C327.817 47.1567 327.641 46.9435 327.582 46.6858C327.52 46.4262 327.582 46.1591 327.769 45.8843C327.96 45.6077 328.26 45.3509 328.67 45.1141C329.294 44.754 329.948 44.5579 330.634 44.5257C331.317 44.4916 331.947 44.6356 332.525 44.9577L334.927 46.3448C335.406 46.6214 335.856 46.8033 336.276 46.8905L336.36 46.9388L335.139 47.6437ZM332.963 47.9052C333.199 47.7687 333.363 47.6077 333.455 47.422C333.55 47.2344 333.554 47.0544 333.465 46.882L332.461 46.3021L331.816 46.6745C331.373 46.9303 331.117 47.1671 331.048 47.385C330.979 47.6029 331.086 47.7934 331.368 47.9563C331.598 48.089 331.857 48.1515 332.146 48.1439C332.434 48.1326 332.707 48.053 332.963 47.9052ZM338.949 43.7725C338.736 43.6494 338.485 43.6067 338.196 43.6446C337.91 43.6806 337.522 43.7915 337.029 43.9772C336.537 44.1629 336.089 44.2964 335.685 44.3779C334.799 44.556 334.082 44.4869 333.534 44.1704C333.074 43.9052 332.884 43.5717 332.963 43.17C333.042 42.7682 333.38 42.395 333.977 42.0501C334.614 41.6825 335.285 41.4769 335.99 41.4333C336.699 41.3879 337.305 41.5101 337.807 41.8L336.611 42.4907C336.381 42.358 336.105 42.2974 335.784 42.3087C335.459 42.3182 335.155 42.4044 334.873 42.5674C334.61 42.719 334.456 42.8781 334.41 43.0449C334.368 43.2097 334.448 43.3509 334.651 43.4684C334.835 43.5745 335.055 43.6124 335.311 43.5821C335.567 43.5518 335.982 43.4314 336.557 43.2211C337.128 43.0089 337.618 42.8677 338.029 42.7976C338.439 42.7237 338.808 42.7076 339.136 42.7493C339.468 42.7891 339.776 42.8914 340.062 43.0563C340.541 43.3329 340.731 43.6721 340.633 44.0738C340.531 44.4736 340.159 44.8592 339.515 45.2306C339.079 45.4826 338.611 45.6617 338.112 45.7678C337.613 45.8739 337.131 45.9023 336.665 45.8531C336.199 45.8038 335.807 45.6873 335.488 45.5035L336.65 44.8327C336.949 44.9862 337.274 45.0506 337.625 45.026C337.973 44.9994 338.309 44.8924 338.634 44.7048C338.949 44.5229 339.13 44.3504 339.176 44.1875C339.218 44.0226 339.143 43.8843 338.949 43.7725ZM337.497 38.6365L338.792 39.3841L339.732 38.8412L340.618 39.3528L339.678 39.8957L342.651 41.6124C342.855 41.7299 343.042 41.7924 343.212 41.8C343.383 41.8038 343.572 41.746 343.779 41.6266C343.916 41.547 344.04 41.457 344.148 41.3566L345.073 41.8909C344.876 42.0918 344.652 42.2652 344.399 42.4111C343.48 42.9416 342.513 42.9142 341.499 42.3286L338.482 40.5863L337.605 41.0923L336.719 40.5806L337.595 40.0747L336.301 39.3272L337.497 38.6365ZM347.249 40.6517L346.053 41.3424L340.726 38.267L341.923 37.5764L347.249 40.6517ZM339.269 37.511C339.085 37.4049 338.99 37.2836 338.984 37.1472C338.98 37.0089 339.087 36.8772 339.304 36.7521C339.52 36.6271 339.748 36.5655 339.988 36.5674C340.228 36.5693 340.439 36.6233 340.623 36.7294C340.804 36.8336 340.895 36.9549 340.899 37.0932C340.899 37.2296 340.79 37.3604 340.574 37.4854C340.357 37.6105 340.131 37.673 339.894 37.673C339.658 37.6692 339.45 37.6152 339.269 37.511ZM349.888 38.1391C350.187 37.9667 350.347 37.7734 350.37 37.5593C350.393 37.3452 350.283 37.1605 350.041 37.0051L351.168 36.3542C351.486 36.5532 351.693 36.7919 351.788 37.0704C351.88 37.3471 351.844 37.6294 351.68 37.9174C351.516 38.2055 351.242 38.4603 350.858 38.682C350.113 39.1121 349.281 39.3139 348.362 39.2874C347.443 39.2609 346.558 39.0022 345.708 38.5115L345.585 38.4404C344.775 37.9724 344.343 37.4731 344.291 36.9425C344.235 36.4101 344.581 35.9279 345.329 35.4958C345.963 35.1301 346.663 34.9397 347.431 34.9245C348.199 34.9056 348.894 35.0638 349.514 35.3992L348.386 36.0501C348.068 35.8814 347.712 35.7971 347.318 35.7971C346.928 35.7952 346.581 35.8814 346.279 36.0558C345.892 36.2793 345.735 36.5333 345.807 36.8175C345.876 37.0998 346.194 37.4068 346.762 37.7384L346.954 37.8492C347.532 38.1827 348.067 38.3722 348.559 38.4177C349.051 38.4594 349.494 38.3665 349.888 38.1391ZM353.59 34.0292L351.006 35.5214L350.041 34.9643L352.625 33.4721L353.59 34.0292ZM328.329 63.9038C328.116 63.7806 327.865 63.738 327.576 63.7759C327.291 63.8119 326.902 63.9227 326.41 64.1084C325.917 64.2941 325.469 64.4277 325.066 64.5092C324.179 64.6873 323.462 64.6182 322.914 64.3017C322.455 64.0364 322.264 63.7029 322.343 63.3012C322.422 62.8995 322.76 62.5262 323.357 62.1814C323.994 61.8138 324.665 61.6082 325.371 61.5646C326.08 61.5191 326.685 61.6414 327.187 61.9313L325.991 62.6219C325.761 62.4893 325.486 62.4287 325.164 62.44C324.839 62.4495 324.536 62.5357 324.253 62.6987C323.991 62.8503 323.836 63.0094 323.791 63.1762C323.748 63.341 323.828 63.4822 324.032 63.5997C324.216 63.7058 324.435 63.7437 324.691 63.7134C324.947 63.683 325.363 63.5627 325.937 63.3524C326.508 63.1402 326.999 62.999 327.409 62.9289C327.819 62.855 328.188 62.8389 328.517 62.8806C328.848 62.9204 329.157 63.0227 329.442 63.1875C329.921 63.4642 330.112 63.8034 330.013 64.2051C329.911 64.6049 329.539 64.9905 328.896 65.3619C328.459 65.6139 327.991 65.793 327.493 65.8991C326.994 66.0052 326.511 66.0336 326.045 65.9843C325.579 65.9351 325.187 65.8185 324.869 65.6347L326.03 64.964C326.329 65.1174 326.654 65.1819 327.005 65.1572C327.353 65.1307 327.69 65.0237 328.014 64.8361C328.329 64.6542 328.51 64.4817 328.556 64.3188C328.599 64.1539 328.523 64.0156 328.329 63.9038ZM334.444 62.1586C333.686 62.5964 332.832 62.8143 331.884 62.8124C330.935 62.8067 330.064 62.5746 329.27 62.116L329.122 62.0307C328.59 61.7238 328.218 61.3912 328.005 61.0331C327.791 60.6712 327.754 60.3159 327.891 59.9673C328.029 59.6186 328.326 59.3126 328.782 59.0492C329.508 58.6304 330.299 58.441 331.155 58.4807C332.015 58.5186 332.868 58.782 333.715 59.2709L334.198 59.5494L330.717 61.5589C331.193 61.792 331.687 61.9085 332.199 61.9085C332.714 61.9066 333.167 61.7929 333.558 61.5675C334.106 61.251 334.331 60.8654 334.232 60.4106L335.492 60.3936C335.597 60.7006 335.56 61.0085 335.379 61.3173C335.199 61.6224 334.887 61.9028 334.444 62.1586ZM329.737 59.6063C329.409 59.7958 329.258 60.0156 329.285 60.2657C329.314 60.5139 329.506 60.7726 329.861 61.0416L332.14 59.7257L332.051 59.6745C331.625 59.4585 331.216 59.3457 330.825 59.3363C330.432 59.3249 330.069 59.4149 329.737 59.6063ZM333.198 56.6134L333.848 56.9488C333.766 56.4466 334.045 56.0108 334.685 55.6413C335.794 55.0009 336.994 55.0416 338.284 55.7635L341.804 57.7958L340.607 58.4864L337.156 56.494C336.818 56.2988 336.495 56.1975 336.187 56.1899C335.878 56.1785 335.558 56.2685 335.227 56.4599C334.744 56.7384 334.603 57.0719 334.803 57.4604L338.594 59.6489L337.398 60.3396L332.071 57.2643L333.198 56.6134ZM344.565 54.53C344.352 54.4068 344.101 54.3642 343.812 54.4021C343.527 54.4381 343.138 54.5489 342.645 54.7346C342.153 54.9203 341.705 55.0539 341.301 55.1354C340.415 55.3135 339.698 55.2444 339.15 54.9279C338.691 54.6626 338.5 54.3291 338.579 53.9274C338.658 53.5257 338.996 53.1524 339.593 52.8076C340.23 52.44 340.901 52.2344 341.607 52.1908C342.316 52.1453 342.921 52.2675 343.423 52.5575L342.227 53.2481C341.997 53.1155 341.722 53.0549 341.4 53.0662C341.075 53.0757 340.771 53.1619 340.489 53.3249C340.227 53.4765 340.072 53.6356 340.026 53.8024C339.984 53.9672 340.064 54.1084 340.268 54.2259C340.451 54.332 340.671 54.3699 340.927 54.3396C341.183 54.3092 341.599 54.1889 342.173 53.9786C342.744 53.7664 343.235 53.6252 343.645 53.5551C344.055 53.4812 344.424 53.4651 344.752 53.5068C345.084 53.5466 345.392 53.6489 345.678 53.8137C346.157 54.0904 346.348 54.4296 346.249 54.8313C346.147 55.2311 345.775 55.6167 345.132 55.9881C344.695 56.2401 344.227 56.4192 343.728 56.5253C343.23 56.6314 342.747 56.6598 342.281 56.6105C341.815 56.5613 341.423 56.4447 341.105 56.2609L342.266 55.5902C342.565 55.7436 342.89 55.8081 343.241 55.7834C343.589 55.7569 343.925 55.6498 344.25 55.4623C344.565 55.2804 344.746 55.1079 344.792 54.945C344.835 54.7801 344.759 54.6418 344.565 54.53ZM349.508 53.3476L348.312 54.0383L342.985 50.9629L344.181 50.2723L349.508 53.3476ZM341.528 50.2069C341.344 50.1008 341.249 49.9795 341.242 49.8431C341.239 49.7048 341.346 49.5731 341.562 49.448C341.779 49.323 342.007 49.2614 342.247 49.2633C342.486 49.2652 342.698 49.3192 342.882 49.4253C343.062 49.5295 343.154 49.6508 343.157 49.7891C343.157 49.9255 343.049 50.0563 342.833 50.1813C342.616 50.3064 342.389 50.3689 342.153 50.3689C341.917 50.3651 341.708 50.3111 341.528 50.2069ZM346.599 48.8767L347.248 49.2121C347.166 48.71 347.445 48.2742 348.085 47.9047C349.195 47.2642 350.394 47.3049 351.684 48.0269L355.204 50.0591L354.008 50.7498L350.557 48.7573C350.219 48.5622 349.895 48.4608 349.587 48.4532C349.278 48.4419 348.958 48.5319 348.627 48.7232C348.144 49.0018 348.003 49.3353 348.203 49.7237L351.994 51.9123L350.798 52.6029L345.471 49.5276L346.599 48.8767ZM353.515 47.9132C352.688 47.4357 352.222 46.943 352.117 46.4352C352.012 45.9236 352.281 45.4821 352.925 45.1107C353.532 44.7602 354.221 44.6067 354.992 44.6503L354.51 44.3092L355.588 43.6867L360.752 46.6683C361.451 47.0719 361.784 47.5162 361.751 48.0013C361.722 48.4845 361.338 48.9393 360.599 49.3656C360.209 49.5911 359.745 49.7645 359.206 49.8857C358.675 50.007 358.181 50.0477 357.724 50.0079L357.572 49.2661C358.376 49.3059 359.047 49.1704 359.585 48.8597C359.982 48.6304 360.188 48.3869 360.201 48.1292C360.217 47.8734 360.017 47.6252 359.6 47.3845L359.241 47.177C359.28 47.5977 359.013 47.9738 358.438 48.3054C357.815 48.6654 357.057 48.817 356.164 48.7602C355.274 48.7014 354.392 48.4191 353.515 47.9132ZM354.81 47.2851C355.345 47.5939 355.875 47.7749 356.4 47.8279C356.925 47.8772 357.381 47.79 357.769 47.5664C358.251 47.2879 358.402 46.962 358.222 46.5887L355.878 45.2358C355.248 45.1335 354.692 45.2216 354.209 45.5001C353.816 45.7275 353.665 45.9947 353.757 46.3016C353.852 46.6067 354.203 46.9345 354.81 47.2851Z" fill="black"/>
<path id="Vector 335" d="M440.748 148.465V170.002" stroke="black" stroke-width="1.16419"/>
<g id="Group 1380">
<rect id="Rectangle 1413" width="54.9655" height="94.7879" transform="matrix(0.866025 -0.5 0.866025 0.5 77.1182 162.993)" stroke="black" stroke-width="1.16374" stroke-linecap="round" stroke-linejoin="round"/>
<path id="Rectangle 1411" d="M92.4966 162.571L92.4972 140.748L191.473 161.273L191.473 183.276L159.902 201.487L92.4966 162.571Z" fill="#505050" stroke="black" stroke-width="1.16374" stroke-linecap="round" stroke-linejoin="round"/>
<path id="Vector 336" d="M160.04 179.316V201.144" stroke="black" stroke-width="1.16419"/>
<rect id="Rectangle 1410" width="36.3977" height="77.8327" transform="matrix(0.866025 -0.5 0.866025 0.5 92.4995 140.413)" fill="#B3B3B3" stroke="black" stroke-width="1.16374" stroke-linecap="round" stroke-linejoin="round"/>
<rect id="Rectangle 1412" width="36.3977" height="24.9947" transform="matrix(0.866025 -0.5 0.866025 0.5 115.379 153.624)" fill="#B3B3B3" stroke="black" stroke-width="1.16374" stroke-linecap="round" stroke-linejoin="round"/>
<g id="Group 1376">
<path id="Ellipse 129" d="M116.911 141.01C118.944 142.184 122.241 142.184 124.275 141.01C125.292 140.423 125.8 139.653 125.8 138.884L125.8 94.5413L115.385 94.5413L115.386 138.884C115.386 139.653 115.894 140.423 116.911 141.01Z" fill="#FAC864" stroke="black" stroke-width="0.726949" stroke-linecap="round" stroke-linejoin="round"/>
<circle id="Ellipse 130" r="4.28307" transform="matrix(0.866025 -0.5 0.866025 0.5 120.6 94.5378)" fill="#FFE598" stroke="black" stroke-width="0.726949" stroke-linecap="round" stroke-linejoin="round"/>
</g>
<g id="Group 1377">
<path id="Ellipse 129_2" d="M137.866 152.07C139.899 153.244 143.197 153.244 145.23 152.07C146.247 151.483 146.755 150.713 146.755 149.944L146.755 105.601L136.34 105.601L136.341 149.944C136.341 150.713 136.849 151.483 137.866 152.07Z" fill="#FAC864" stroke="black" stroke-width="0.726949" stroke-linecap="round" stroke-linejoin="round"/>
<circle id="Ellipse 130_2" r="4.28307" transform="matrix(0.866025 -0.5 0.866025 0.5 141.555 105.598)" fill="#FFE598" stroke="black" stroke-width="0.726949" stroke-linecap="round" stroke-linejoin="round"/>
</g>
<g id="Group 1378">
<path id="Ellipse 129_3" d="M161.149 167.202C163.183 168.376 166.48 168.376 168.513 167.202C169.53 166.615 170.039 165.845 170.039 165.076L170.038 120.733L159.624 120.733L159.624 165.076C159.624 165.845 160.132 166.615 161.149 167.202Z" fill="#FAC864" stroke="black" stroke-width="0.726949" stroke-linecap="round" stroke-linejoin="round"/>
<circle id="Ellipse 130_3" r="4.28307" transform="matrix(0.866025 -0.5 0.866025 0.5 164.838 120.73)" fill="#FFE598" stroke="black" stroke-width="0.726949" stroke-linecap="round" stroke-linejoin="round"/>
</g>
</g>
</g>
</svg>
